<?xml version="1.0" standalone="no"?>
<!DOCTYPE svg PUBLIC "-//W3C//DTD SVG 20010904//EN"
 "http://www.w3.org/TR/2001/REC-SVG-20010904/DTD/svg10.dtd">
<svg version="1.0" xmlns="http://www.w3.org/2000/svg"
 width="150.000000pt" height="150.000000pt" viewBox="0 0 150.000000 150.000000"
 preserveAspectRatio="xMidYMid meet">

<g transform="translate(0.000000,150.000000) scale(0.100000,-0.100000)"
fill="#000000" stroke="none">
<path d="M502 1388 c-7 -7 -12 -40 -12 -80 0 -40 -4 -68 -10 -68 -6 0 -37 11
-70 25 -73 31 -80 31 -80 2 0 -23 18 -55 53 -94 30 -34 41 -16 15 25 -21 33
-21 35 -2 27 123 -52 134 -49 134 40 0 61 11 84 23 51 3 -8 29 -33 58 -56 49
-39 53 -40 70 -24 11 9 19 23 19 31 0 7 5 13 10 13 6 0 10 -20 10 -44 0 -24 2
-51 6 -59 4 -11 -9 -16 -60 -21 -67 -7 -201 -47 -219 -65 -22 -22 3 -22 70 -1
37 12 109 24 158 27 93 6 108 13 99 48 -3 11 -8 64 -13 118 -11 131 -22 140
-63 49 -17 -40 -35 -72 -39 -72 -4 0 -35 32 -69 70 -34 39 -65 70 -69 70 -4 0
-12 -5 -19 -12z"/>
<path d="M70 985 l0 -235 44 0 c62 0 76 7 76 40 0 28 22 60 42 60 5 0 19 -22
31 -50 11 -27 27 -50 35 -50 30 0 91 23 96 37 3 8 -7 40 -24 72 l-29 58 24 19
c19 15 26 33 33 85 l8 67 -44 6 c-78 11 -82 9 -82 -25 0 -22 -9 -40 -31 -60
-17 -16 -36 -29 -41 -29 -7 0 -8 42 -3 120 l7 120 -71 0 -71 0 0 -235z"/>
<path d="M1133 1137 c-6 -13 -8 -28 -5 -34 10 -15 79 -26 87 -13 3 5 19 10 36
10 22 0 29 -5 29 -20 0 -17 -8 -19 -72 -22 l-73 -3 -9 -63 c-12 -87 -5 -91
142 -91 l112 0 0 104 c0 57 -4 115 -10 129 -9 26 -11 26 -118 26 -104 0 -109
-1 -119 -23z m147 -147 c0 -16 -7 -20 -30 -20 -23 0 -30 4 -30 20 0 16 7 20
30 20 23 0 30 -4 30 -20z"/>
<path d="M707 1013 c-4 -54 -7 -133 -7 -175 l0 -78 54 0 c52 0 54 1 60 31 3
17 6 59 6 93 0 57 12 98 24 85 3 -3 9 -43 13 -90 l8 -84 37 -6 c41 -6 47 4 48
71 0 61 12 110 26 110 10 0 14 -25 16 -102 l3 -103 41 -3 c62 -5 65 4 62 179
l-3 154 -84 3 c-59 2 -87 -1 -92 -9 -6 -10 -11 -10 -23 0 -8 7 -34 11 -60 10
-25 -2 -48 0 -52 4 -4 4 -22 7 -39 7 l-32 0 -6 -97z"/>
<path d="M430 1011 c-5 -11 -10 -30 -10 -42 0 -21 2 -21 80 -15 69 6 80 5 80
-8 0 -13 -12 -16 -61 -16 -90 0 -99 -8 -99 -84 0 -41 5 -68 14 -75 8 -7 57
-11 130 -10 l116 0 0 129 c0 107 -3 129 -16 134 -9 3 -62 6 -119 6 -93 0 -105
-2 -115 -19z m150 -161 c0 -15 -7 -20 -29 -20 -20 0 -30 6 -34 20 -4 17 0 20
29 20 27 0 34 -4 34 -20z"/>
<path d="M1130 837 l0 -44 117 -7 c64 -3 121 -2 126 3 4 4 7 26 5 47 l-3 39
-122 3 -123 3 0 -44z"/>
<path d="M1210 743 c-159 -31 -165 -36 -150 -127 6 -38 18 -79 28 -92 17 -24
19 -24 120 -18 99 6 102 6 102 -14 0 -27 -60 -41 -95 -22 -29 15 -102 4 -114
-17 -5 -9 -3 -32 4 -57 11 -36 16 -41 44 -44 42 -4 282 46 299 62 10 10 10 27
1 87 -7 41 -17 80 -22 87 -8 10 -38 13 -121 10 -107 -3 -111 -2 -114 18 -3 19
3 22 49 28 43 6 54 4 62 -9 4 -9 16 -14 25 -11 9 2 34 7 55 11 l39 6 -7 52
c-12 88 -12 88 -205 50z"/>
<path d="M800 720 c-23 -43 -7 -53 70 -45 60 6 70 5 70 -9 0 -13 -12 -16 -63
-16 -36 0 -68 -5 -75 -12 -17 -17 -15 -113 2 -127 8 -7 54 -11 120 -10 l107 1
-3 116 -3 117 -107 3 c-100 2 -108 1 -118 -18z m140 -140 c0 -20 -15 -25 -44
-14 -28 11 -18 34 14 34 23 0 30 -4 30 -20z"/>
<path d="M63 712 c-8 -13 -9 -64 -6 -165 l6 -146 28 -12 c21 -8 66 -9 154 -4
141 8 149 13 143 83 l-3 37 -57 3 c-47 2 -58 0 -58 -13 0 -11 -10 -15 -39 -15
-45 0 -51 11 -51 103 l0 58 43 -3 c39 -3 42 -5 45 -35 l3 -33 60 0 59 0 0 64
c0 92 -8 96 -180 96 -120 0 -136 -2 -147 -18z"/>
<path d="M545 714 c-13 -10 -15 -32 -13 -120 l3 -109 106 -3 c103 -3 106 -2
116 21 19 41 3 50 -71 42 -56 -5 -66 -4 -66 9 0 12 15 16 68 18 l67 3 9 57
c13 80 6 86 -110 90 -59 2 -99 -1 -109 -8z m133 -81 c2 -15 -2 -23 -11 -23
-29 0 -47 12 -47 32 0 30 54 21 58 -9z"/>
<path d="M410 460 l0 -190 121 0 122 0 -7 31 c-3 17 -6 38 -6 45 0 11 -17 14
-65 14 l-65 0 0 139 c0 153 1 151 -66 151 l-34 0 0 -190z"/>
<path d="M786 472 c-7 -6 -8 -266 -2 -273 2 -2 27 -2 55 -1 l51 4 0 94 0 94
35 0 35 0 0 -100 0 -100 38 0 c62 0 63 2 60 151 l-3 134 -132 2 c-72 1 -134
-1 -137 -5z"/>
<path d="M546 438 c-15 -58 -15 -58 99 -58 l105 0 0 34 0 33 -67 6 c-116 11
-130 10 -137 -15z"/>
<path d="M1291 358 l-93 -21 6 -41 c4 -22 9 -42 11 -45 6 -6 225 41 230 49 2
4 2 23 -2 43 -7 44 -13 45 -152 15z"/>
</g>
</svg>
